<mxfile host="app.diagrams.net" modified="2024-08-05T05:12:04.785Z" agent="Mozilla/5.0 (X11; Ubuntu; Linux x86_64; rv:128.0) Gecko/20100101 Firefox/128.0" version="24.4.10" etag="3TDEXyni4DbyflYxd6gp" type="github">
  <diagram name="Page-1" id="MCl_CwwoJTP4mLzz0zcS">
    <mxGraphModel>
      <root>
        <mxCell id="0" />
        <mxCell id="1" parent="0" />
      </root>
    </mxGraphModel>
  </diagram>
</mxfile>
